# xmcd CD database file
#
# Track frame offsets:
#	150
#	15488
#	31565
#	46319
#	63281
#	81444
#	97317
#	113608
#	128432
#	141876
#
# Disc length: 2192 seconds
#
# Revision: 0
# Processed by: cddbd v1.5.1PL0 Copyright (c) Steve Scherf et al.
# Submitted via: CDex 1.51
#
DISCID=77088e0a
DTITLE=Candiria - What Doesn't Kill You...
DYEAR=2004
DGENRE=Hardcore
TTITLE0=Dead Bury The Dead
TTITLE1=The Nameless King
TTITLE2=Blood
TTITLE3=Remove Yourself
TTITLE4=1000 Points Of Light
TTITLE5=Down
TTITLE6=MM Solution
TTITLE7=I Am
TTITLE8=Vacant
TTITLE9=The Rutherford Experiment
EXTD=YEAR: 2004
EXTT0=
EXTT1=
EXTT2=
EXTT3=
EXTT4=
EXTT5=
EXTT6=
EXTT7=
EXTT8=
EXTT9=
PLAYORDER=
